PathFileType	4	(X/Y/Z)	E:\Qualisys_Data\Carbon_Farble_Plate\Data\Amateur_Runner\S14\T2\S14T2V13_c3d.trc
DataRate	CameraRate	NumFrames	NumMarkers	Units	OrigDataRate	OrigDataStartFrame	OrigNumFrames
200.000000	200.000000	4	39	mm	200.000000	0	319
Frame#	Time	LSHO			RSHO			LICST			RICST			LASIS			LHEEL			RASIS			LTROC			RTROC			SACR			LTH1			LSK4			LTH2			LTH3			RHM5			LSK2			LTH4			RTH1			LTOE			RTH2			RTH3			RTH4			LLEP			RLEP			LSK1			LSK3			RSK1			LHM5			RSK2			LFT1			RSK3			RSK4			LLME			RLME			RTOE			RHEEL			RFT1			RFT2			LFT2			
		X1	Y1	Z1	X2	Y2	Z2	X3	Y3	Z3	X4	Y4	Z4	X5	Y5	Z5	X6	Y6	Z6	X7	Y7	Z7	X8	Y8	Z8	X9	Y9	Z9	X10	Y10	Z10	X11	Y11	Z11	X12	Y12	Z12	X13	Y13	Z13	X14	Y14	Z14	X15	Y15	Z15	X16	Y16	Z16	X17	Y17	Z17	X18	Y18	Z18	X19	Y19	Z19	X20	Y20	Z20	X21	Y21	Z21	X22	Y22	Z22	X23	Y23	Z23	X24	Y24	Z24	X25	Y25	Z25	X26	Y26	Z26	X27	Y27	Z27	X28	Y28	Z28	X29	Y29	Z29	X30	Y30	Z30	X31	Y31	Z31	X32	Y32	Z32	X33	Y33	Z33	X34	Y34	Z34	X35	Y35	Z35	X36	Y36	Z36	X37	Y37	Z37	X38	Y38	Z38	X39	Y39	Z39	

1	0	-2324.473876953125	1488.33349609375	-481.0807189941406	-2376.147216796875	1487.260986328125	-191.6951751708984	-2401.210205078125	1036.276000976562	-468.8038024902344	-2382.666015625	1043.574340820312	-196.7649078369141	-2368.02978515625	980.6444091796875	-446.1228637695312	-2963.330810546875	363.1873779296875	-334.7462768554688	-2358.64794921875	999.340576171875	-216.4069671630859	-2521.615478515625	939.5970458984375	-486.4988098144531	-2485.127197265625	928.7711791992188	-154.2041320800781	-2534.74853515625	1052.869384765625	-365.6815490722656	-2539.424560546875	707.239990234375	-484.017578125	-2824.884521484375	472.9836120605469	-419.2949829101562	-2607.673583984375	735.8604736328125	-453.6747131347656	-2565.31884765625	613.2711791992188	-460.6300659179688	-2108.702880859375	137.2848815917969	-150.0351867675781	-2750.185302734375	535.921142578125	-439.4065551757812	-2636.43359375	642.73291015625	-435.8792114257812	-2298.5703125	740.5161743164062	-164.9452362060547	-2905.49267578125	114.4126281738281	-381.5928344726562	-2372.384765625	717.7678833007812	-150.8289031982422	-2265.883056640625	649.2887573242188	-189.3780364990234	-2342.1728515625	620.930908203125	-168.2886810302734	-2640.369873046875	568.2263793945312	-447.0545349121094	-2294.13818359375	562.7221069335938	-171.6561737060547	-2698.1474609375	472.6739196777344	-449.0541076660156	-2776.733642578125	408.56396484375	-434.6940002441406	-2255.75244140625	448.3835144042969	-163.1843719482422	-2955.5693359375	175.0558929443359	-431.4190979003906	-2339.56103515625	429.4079895019531	-172.8375701904297	-2981.072509765625	342.3339538574219	-307.7183227539062	-2240.060791015625	345.549560546875	-173.1270294189453	-2319.5087890625	335.883056640625	-179.1172485351562	-2934.705322265625	326.4815063476562	-403.3079223632812	-2242.963134765625	163.3132781982422	-190.7704467773438	-2034.206909179688	181.8817749023438	-200.5257263183594	-2285.734375	119.5284194946289	-251.1672973632812	-2256.8291015625	97.53263092041016	-277.2145385742188	-2274.5322265625	92.18949890136719	-223.8230590820312	-2997.947265625	351.9499816894531	-360.2744445800781
2	0.005	-2309.3017578125	1488.113403320312	-480.6351013183594	-2360.0986328125	1486.067749023438	-190.6217651367188	-2385.565673828125	1035.841430664062	-468.913330078125	-2366.980224609375	1042.129028320312	-196.6156158447266	-2352.324951171875	980.3352661132812	-446.3166198730469	-2950.267578125	370.2651977539062	-334.3565368652344	-2342.40478515625	998.0669555664062	-216.6267395019531	-2504.698486328125	938.177001953125	-486.6360168457031	-2469.07373046875	925.9476928710938	-154.446044921875	-2518.619873046875	1052.069091796875	-365.6493835449219	-2520.136962890625	705.5803833007812	-483.0839233398438	-2808.361572265625	476.6869506835938	-419.0643920898438	-2589.84716796875	733.54248046875	-454.8693542480469	-2546.115234375	611.5326538085938	-460.8898010253906	-2087.41748046875	138.7366943359375	-150.6987152099609	-2731.866455078125	537.2645263671875	-439.3550109863281	-2617.420654296875	640.3017578125	-436.13818359375	-2283.5244140625	737.38330078125	-164.3732452392578	-2895.49267578125	120.4045181274414	-381.0056762695312	-2357.061279296875	715.006103515625	-148.8596343994141	-2251.667724609375	646.0471801757812	-189.3676452636719	-2329.16943359375	618.0618286132812	-167.4785003662109	-2621.20654296875	567.04541015625	-448.0860595703125	-2280.033203125	559.83935546875	-172.0907745361328	-2682.033203125	473.740234375	-449.5433044433594	-2761.317138671875	411.0871887207031	-433.9723205566406	-2241.421142578125	446.556396484375	-164.7423400878906	-2944.154052734375	182.8959350585938	-432.2685241699219	-2323.366455078125	426.5127563476562	-173.9443817138672	-2968.906494140625	350.1730346679688	-306.9365234375	-2222.792724609375	344.1970520019531	-173.7126770019531	-2302.181884765625	333.5250244140625	-180.2767333984375	-2921.807861328125	332.9792175292969	-402.7342529296875	-2223.133544921875	162.0272827148438	-191.4948425292969	-2014.162231445312	185.3285369873047	-201.0794677734375	-2263.72265625	117.9673843383789	-250.8137969970703	-2235.1162109375	96.6865234375	-278.0865783691406	-2251.74072265625	89.78173828125	-224.4214477539062	-2985.181396484375	359.7214965820312	-360.3935852050781
3	0.01	-2293.26904296875	1486.51416015625	-479.4962158203125	-2344.177978515625	1484.487426757812	-189.9861602783203	-2369.31396484375	1034.852661132812	-468.3301391601562	-2350.5244140625	1041.184326171875	-196.3687591552734	-2335.712890625	979.6714477539062	-446.5341186523438	-2935.951416015625	377.0830993652344	-332.2272033691406	-2326.359619140625	996.4417114257812	-216.5309753417969	-2487.843017578125	936.8161010742188	-486.76806640625	-2452.785888671875	923.76513671875	-154.9010620117188	-2501.900390625	1050.581298828125	-364.8520202636719	-2501.140625	703.4926147460938	-482.9491271972656	-2791.124267578125	479.9570007324219	-419.0862121582031	-2570.82373046875	730.83935546875	-455.0638732910156	-2526.745361328125	609.140869140625	-461.1329345703125	-2067.564208984375	139.7192687988281	-151.8954620361328	-2713.72216796875	538.7817993164062	-440.0523376464844	-2598.291259765625	637.6671752929688	-436.8046264648438	-2268.6728515625	734.2356567382812	-163.5478210449219	-2885.996337890625	127.312858581543	-381.6981201171875	-2342.75537109375	711.1506958007812	-147.4779663085938	-2236.92529296875	642.97265625	-189.1267395019531	-2314.544189453125	614.5986938476562	-166.8628845214844	-2602.29833984375	565.3064575195312	-448.3184814453125	-2265.8271484375	557.0826416015625	-172.6046142578125	-2664.657470703125	472.9976501464844	-449.44921875	-2746.97509765625	413.512451171875	-433.8102722167969	-2225.460205078125	445.058349609375	-165.4749755859375	-2932.54736328125	189.9734497070312	-432.3155212402344	-2307.217041015625	425.1835327148438	-172.3148040771484	-2955.435791015625	357.1926879882812	-306.8911743164062	-2206.18896484375	343.0412902832031	-172.7803497314453	-2284.666259765625	331.1480102539062	-181.6243896484375	-2907.80419921875	339.5236511230469	-402.4138488769531	-2203.154052734375	160.5460205078125	-192.3373413085938	-1995.538940429688	188.1658172607422	-201.5405120849609	-2243.760009765625	114.5427856445312	-252.8440551757812	-2214.215087890625	94.97555541992188	-280.2148742675781	-2231.31103515625	87.71741485595703	-225.7713928222656	-2970.839599609375	366.7735290527344	-359.8639831542969
4	0.015	-2277.2158203125	1485.066040039062	-479.1124877929688	-2328.28173828125	1482.917114257812	-188.9041748046875	-2353.69970703125	1033.982666015625	-468.36572265625	-2335.3369140625	1038.979858398438	-195.9244842529297	-2319.318359375	978.783935546875	-446.2783203125	-2921.152587890625	384.1221008300781	-332.5166625976562	-2310.646484375	994.6340942382812	-216.5200347900391	-2470.815673828125	934.818115234375	-487.03564453125	-2437.127685546875	921.2098999023438	-154.6036071777344	-2486.01953125	1048.763793945312	-364.6429138183594	-2481.69189453125	700.9385375976562	-483.037841796875	-2773.62255859375	482.4160766601562	-419.0723571777344	-2552.3798828125	728.1616821289062	-456.1374816894531	-2507.1455078125	606.4507446289062	-461.0269165039062	-2049.416015625	140.1247711181641	-152.7590484619141	-2693.851806640625	539.307373046875	-440.3463745117188	-2579.025146484375	634.5648193359375	-437.2579345703125	-2254.427001953125	731.1392822265625	-163.2912292480469	-2875.6953125	133.9096221923828	-381.9280700683594	-2328.000732421875	707.7587890625	-146.5816497802734	-2223.484619140625	639.2332153320312	-189.4191284179688	-2300.62451171875	611.6453247070312	-166.2354888916016	-2582.218994140625	562.8741455078125	-448.7621765136719	-2250.601318359375	553.7920532226562	-172.8587799072266	-2646.656982421875	471.9682006835938	-449.494140625	-2730.868896484375	415.2044372558594	-432.977294921875	-2207.078369140625	443.0243225097656	-167.1417846679688	-2920.94873046875	197.727294921875	-432.6941528320312	-2290.893798828125	422.8074340820312	-173.1979827880859	-2941.986572265625	364.7402038574219	-307.532958984375	-2187.792724609375	341.7013549804688	-175.8984527587891	-2267.02783203125	328.775634765625	-181.5726776123047	-2893.696533203125	345.7786865234375	-401.9180603027344	-2185.616943359375	159.4232177734375	-193.6354827880859	-1977.074829101562	189.4664916992188	-202.2189025878906	-2223.209228515625	113.25244140625	-252.4808654785156	-2194.1728515625	92.74610137939452	-280.0868225097656	-2212.000244140625	85.7355728149414	-227.0106201171875	-2956.431396484375	374.5594787597656	-359.6190795898438
